<?xml version="1.0" encoding="utf-8"?>
<!-- Generator: Adobe Illustrator 16.0.0, SVG Export Plug-In . SVG Version: 6.00 Build 0)  -->
<!DOCTYPE svg PUBLIC "-//W3C//DTD SVG 1.1//EN" "http://www.w3.org/Graphics/SVG/1.1/DTD/svg11.dtd">
<svg version="1.1" id="Layer_1" xmlns="http://www.w3.org/2000/svg" xmlns:xlink="http://www.w3.org/1999/xlink" x="0px" y="0px"
	 width="222px" height="70px" viewBox="0 0 222 70" enable-background="new 0 0 222 70" xml:space="preserve">
<g>
	<text transform="matrix(1 0 0 1 78.0078 39.8999)" fill="#6E5D53" font-family="'BOKEH'" font-size="44.49">Aerate</text>
	<text transform="matrix(1 0 0 1 76.3779 63.6187)" fill="#FDBB51" font-family="'Lato-Light'" font-size="27.7997">Solutions</text>
	<path fill="#6E5D53" d="M18.357,46.701L5.872,51.01v12.606h15.224V48.816C19.876,48.596,18.867,47.792,18.357,46.701z"/>
	<path fill="#FDBB51" d="M21.096,41.397V26.252H5.872v22.904l12.134-4.184C18.071,43.179,19.376,41.708,21.096,41.397z"/>
	<path fill="#6E5D53" d="M35.318,50.253c0-0.07,0.017-0.135,0.021-0.204l-10.085-3.48c-0.427,1.017-1.293,1.791-2.355,2.125V63.62
		h15.224v-9.73C36.511,53.457,35.318,52.001,35.318,50.253z"/>
	<path fill="#FDBB51" d="M38.122,46.619V34.692H22.898v6.828c1.439,0.452,2.497,1.733,2.62,3.29l10.321,3.559
		C36.335,47.516,37.146,46.88,38.122,46.619z"/>
	<path fill="#FDBB51" d="M52.083,40.979c0-1.803,1.265-3.306,2.955-3.682V15.579H39.813v30.969c1.041,0.201,1.922,0.829,2.469,1.693
		l10.138-5.717C52.207,42.052,52.083,41.531,52.083,40.979z"/>
	<path fill="#6E5D53" d="M53.514,43.918l-10.672,6.02c0.009,0.105,0.032,0.207,0.032,0.315c0,1.84-1.317,3.37-3.06,3.705v9.661
		h15.224V44.662C54.467,44.535,53.954,44.27,53.514,43.918z"/>
	<path fill="#6E5D53" d="M59.581,40.417c0.028,0.186,0.057,0.369,0.057,0.563c0,1.815-1.281,3.328-2.988,3.692V63.62h15.224V33.481
		L59.581,40.417z"/>
	<path fill="#FDBB51" d="M56.65,8.741v28.546c0.931,0.199,1.73,0.744,2.269,1.49l12.956-7.307V8.741H56.65z"/>
</g>
</svg>
